<svg xmlns="http://www.w3.org/2000/svg" xmlns:xlink="http://www.w3.org/1999/xlink" width="1366" zoomAndPan="magnify" viewBox="0 0 1024.5 576" height="768" preserveAspectRatio="xMidYMid meet" version="1.0"><defs><clipPath id="bb9e38e3a6"><path d="M 0 136 L 1024 136 L 1024 575.859375 L 0 575.859375 Z M 0 136 " clip-rule="nonzero"/></clipPath><clipPath id="4f9ed50122"><path d="M 1070.652344 972.191406 C 1070.054688 736.039062 1062.878906 416.78125 1062.878906 181.222656 C 1062.878906 177.636719 1063.476562 174.050781 1063.476562 171.058594 C 1062.878906 170.460938 1062.28125 170.460938 1061.683594 169.863281 C 1061.683594 169.863281 1061.085938 170.460938 1061.085938 171.058594 C 1059.890625 174.050781 1057.5 174.050781 1055.105469 174.050781 C 1052.117188 173.453125 1049.128906 170.460938 1045.542969 171.65625 C 1044.34375 172.253906 1041.953125 171.058594 1041.355469 169.863281 C 1039.5625 167.472656 1037.171875 167.472656 1034.78125 168.667969 C 1033.585938 169.265625 1032.386719 168.667969 1031.191406 168.667969 C 1029.398438 168.667969 1027.007812 168.070312 1025.214844 167.472656 C 1024.617188 167.472656 1023.421875 166.875 1022.824219 166.875 C 1021.027344 166.277344 1019.234375 164.484375 1017.441406 166.875 C 1017.441406 166.875 1016.246094 166.875 1015.648438 166.277344 C 1015.050781 165.082031 1014.453125 163.289062 1013.855469 162.09375 C 1012.660156 160.296875 1012.660156 157.308594 1010.867188 156.113281 C 1009.667969 155.515625 1009.070312 154.917969 1008.472656 153.722656 C 1008.472656 153.125 1007.277344 152.527344 1007.277344 151.929688 L 1005.484375 150.136719 C 1004.886719 148.9375 1004.289062 147.144531 1003.09375 146.546875 C 1000.703125 144.753906 1000.105469 142.363281 1001.300781 139.375 C 999.507812 138.777344 998.308594 137.578125 996.515625 137.578125 C 989.34375 138.179688 981.570312 139.375 974.394531 139.972656 C 973.199219 139.972656 971.40625 140.570312 970.808594 141.167969 C 966.027344 144.15625 961.242188 141.765625 956.460938 141.167969 C 952.871094 141.167969 949.285156 139.375 945.699219 138.777344 C 941.515625 138.179688 937.925781 138.777344 933.742188 138.179688 C 933.144531 138.179688 932.546875 137.578125 931.949219 136.980469 C 930.753906 135.1875 928.359375 135.785156 927.164062 136.382812 C 925.371094 137.578125 924.773438 139.375 923.578125 141.167969 C 920.589844 141.765625 916.402344 142.363281 913.414062 144.15625 C 911.023438 145.351562 909.828125 145.949219 908.035156 144.753906 L 907.4375 145.351562 C 908.632812 146.546875 909.230469 148.339844 910.425781 149.539062 C 908.632812 150.136719 906.238281 151.332031 905.042969 150.734375 C 902.054688 150.136719 900.859375 151.332031 898.46875 152.527344 C 896.078125 154.320312 893.085938 155.515625 890.695312 156.710938 C 890.097656 156.710938 889.5 156.710938 888.902344 156.113281 C 888.304688 156.113281 887.707031 155.515625 887.707031 155.515625 C 884.71875 156.710938 881.726562 157.90625 878.738281 156.710938 C 878.140625 156.710938 878.140625 157.308594 877.542969 157.308594 C 873.957031 158.503906 871.5625 162.691406 866.78125 162.691406 C 863.195312 162.691406 859.605469 165.679688 856.019531 165.679688 C 851.835938 166.277344 848.246094 167.472656 844.660156 169.265625 C 843.464844 169.863281 842.269531 169.863281 841.671875 169.863281 C 838.679688 168.667969 836.886719 170.460938 835.691406 172.253906 C 832.703125 176.441406 827.921875 177.636719 823.734375 178.832031 C 818.355469 180.027344 812.972656 180.625 807.59375 181.222656 C 806.996094 181.222656 806.398438 183.015625 805.203125 183.613281 C 804.605469 183.613281 804.003906 183.015625 804.003906 183.015625 C 801.015625 186.605469 799.222656 191.984375 793.246094 191.386719 L 792.644531 191.386719 C 787.863281 194.375 783.082031 193.179688 778.894531 191.984375 C 777.699219 191.984375 775.90625 190.789062 775.308594 189.59375 C 773.515625 186.007812 768.730469 184.8125 765.144531 186.007812 C 762.15625 187.203125 759.167969 187.800781 756.175781 188.996094 C 751.394531 190.191406 747.210938 190.789062 742.425781 188.398438 C 737.644531 186.007812 734.054688 187.800781 731.664062 193.179688 C 729.871094 196.769531 725.089844 197.367188 722.097656 194.375 C 720.304688 192.582031 719.109375 193.179688 717.316406 194.375 L 713.730469 197.964844 C 713.132812 198.5625 711.933594 198.5625 711.335938 198.5625 L 707.75 198.5625 C 705.359375 198.5625 702.96875 197.964844 700.574219 197.367188 C 697.585938 196.769531 695.195312 194.972656 692.207031 194.375 C 687.421875 193.777344 686.226562 189.59375 684.433594 186.605469 C 683.238281 184.8125 680.847656 182.417969 678.453125 183.015625 C 676.0625 184.214844 673.671875 183.015625 671.878906 182.417969 C 671.28125 182.417969 670.085938 181.820312 669.488281 181.820312 C 665.300781 180.625 662.3125 183.015625 659.324219 186.007812 L 656.933594 188.398438 C 656.335938 188.996094 656.335938 190.191406 655.734375 190.789062 C 652.148438 193.777344 648.5625 192.582031 644.375 190.789062 C 640.789062 188.996094 636.605469 190.789062 635.410156 194.375 C 634.8125 196.769531 634.214844 198.5625 631.222656 199.757812 C 628.234375 201.550781 624.648438 202.746094 624.050781 206.933594 C 624.050781 207.53125 623.453125 208.128906 622.855469 208.128906 C 621.058594 208.726562 619.863281 209.324219 618.070312 209.921875 L 612.691406 209.921875 C 609.101562 209.324219 605.515625 208.128906 601.929688 207.53125 C 597.742188 206.933594 594.15625 209.324219 589.972656 209.921875 L 589.375 210.519531 C 588.179688 212.3125 586.382812 211.714844 585.1875 210.519531 C 582.796875 208.128906 578.613281 207.53125 575.621094 208.726562 C 572.035156 210.519531 568.449219 211.714844 564.863281 212.910156 C 563.664062 212.910156 562.46875 212.3125 561.871094 212.3125 C 560.675781 212.3125 558.882812 211.714844 558.285156 212.3125 C 553.503906 215.898438 548.71875 214.703125 544.535156 212.3125 C 542.144531 211.117188 538.554688 209.921875 537.359375 206.332031 C 536.761719 203.941406 534.371094 201.550781 532.578125 199.757812 C 529.585938 196.769531 526.597656 192.582031 521.21875 192.582031 C 520.023438 192.582031 518.828125 190.191406 518.226562 190.789062 C 515.835938 191.386719 515.835938 190.191406 514.640625 188.996094 C 513.445312 187.800781 511.652344 186.605469 510.457031 184.8125 C 508.664062 182.417969 506.867188 179.429688 505.074219 177.039062 C 503.28125 174.648438 502.085938 171.65625 500.292969 169.265625 C 499.695312 168.667969 497.902344 168.070312 497.304688 168.667969 L 490.128906 172.253906 C 488.933594 172.855469 488.335938 174.050781 487.738281 175.246094 L 487.140625 174.648438 C 487.738281 172.855469 488.335938 171.058594 488.933594 170.460938 L 481.757812 168.667969 C 479.964844 168.070312 476.976562 168.070312 475.78125 168.070312 L 466.214844 168.070312 C 462.628906 168.070312 459.636719 167.472656 456.050781 168.070312 C 453.660156 168.667969 451.867188 167.472656 450.074219 166.277344 C 445.289062 162.691406 440.507812 158.503906 433.929688 160.296875 C 433.332031 160.296875 432.136719 159.699219 431.539062 159.101562 C 429.746094 158.503906 428.550781 157.308594 426.15625 156.113281 C 426.15625 157.90625 426.15625 158.503906 426.753906 159.699219 C 425.558594 160.898438 424.960938 160.296875 424.363281 159.699219 C 423.765625 160.296875 423.167969 161.496094 422.570312 161.496094 C 419.582031 162.691406 416.59375 163.289062 413.601562 164.484375 C 412.40625 165.082031 411.210938 165.679688 410.613281 166.277344 C 408.222656 168.070312 406.429688 171.058594 402.242188 170.460938 C 401.644531 170.460938 400.449219 171.65625 399.253906 171.65625 C 398.058594 172.253906 396.265625 172.253906 395.070312 172.855469 L 393.875 172.855469 C 390.285156 174.050781 387.296875 175.246094 383.710938 175.84375 L 381.320312 175.84375 C 378.328125 175.84375 375.9375 175.246094 372.949219 175.246094 C 369.960938 175.246094 366.96875 176.441406 363.980469 176.441406 C 360.394531 176.441406 356.207031 176.441406 353.21875 174.050781 C 352.621094 173.453125 350.828125 173.453125 349.632812 174.050781 C 345.445312 174.648438 341.261719 175.246094 337.675781 176.441406 C 334.085938 177.636719 332.292969 176.441406 331.097656 173.453125 C 330.5 172.253906 329.304688 171.058594 328.109375 169.863281 C 326.316406 168.667969 324.523438 166.875 322.726562 166.875 C 318.542969 166.875 316.152344 164.484375 313.164062 162.691406 C 308.378906 159.699219 304.195312 156.113281 298.214844 156.710938 L 298.214844 153.722656 C 299.410156 153.722656 300.605469 153.722656 301.804688 153.125 C 300.007812 151.929688 300.007812 150.136719 298.8125 148.9375 C 296.421875 147.144531 294.03125 146.546875 291.640625 145.351562 C 289.847656 144.753906 287.453125 144.753906 288.648438 147.742188 C 285.660156 148.339844 283.269531 148.339844 282.074219 149.539062 C 279.683594 151.332031 277.289062 150.136719 275.496094 148.9375 C 274.300781 148.339844 273.105469 147.742188 271.910156 148.339844 C 264.734375 151.929688 257.5625 150.136719 250.386719 150.136719 C 249.191406 150.136719 247.996094 149.539062 246.203125 149.539062 C 243.808594 148.9375 242.015625 147.742188 239.625 147.144531 C 237.234375 146.546875 234.246094 145.949219 231.851562 145.351562 L 230.058594 145.351562 C 225.875 145.351562 221.691406 145.949219 218.101562 145.949219 C 215.113281 145.949219 212.125 144.753906 208.535156 144.15625 C 207.9375 139.375 203.15625 140.570312 200.167969 138.179688 C 199.570312 137.578125 198.375 138.179688 197.773438 138.179688 C 194.1875 137.578125 191.796875 139.375 190.601562 142.363281 C 188.808594 145.351562 184.023438 146.546875 185.816406 151.332031 C 186.414062 151.929688 187.613281 152.527344 188.210938 153.722656 C 188.210938 155.515625 187.613281 156.710938 185.816406 156.113281 C 185.21875 156.113281 184.621094 157.308594 184.023438 157.90625 C 183.425781 158.503906 183.425781 159.699219 182.828125 159.699219 C 179.242188 160.898438 176.851562 163.886719 172.664062 163.289062 L 171.46875 163.289062 C 167.882812 166.277344 164.296875 165.679688 160.109375 165.082031 C 158.316406 164.484375 155.925781 165.082031 153.535156 165.082031 C 151.738281 165.082031 149.945312 165.082031 148.152344 163.886719 C 145.761719 162.691406 143.371094 160.898438 140.976562 159.699219 C 138.585938 158.503906 135.597656 158.503906 135.597656 154.320312 C 135.597656 153.722656 134.402344 153.125 134.402344 152.527344 C 130.21875 156.113281 126.628906 159.101562 123.042969 162.09375 C 121.25 163.886719 118.859375 166.277344 120.054688 169.265625 C 120.054688 169.863281 119.457031 170.460938 119.457031 171.058594 C 118.859375 172.253906 118.261719 173.453125 117.0625 174.050781 C 115.867188 175.84375 114.671875 177.636719 113.476562 180.027344 L 109.890625 183.613281 C 108.695312 185.410156 107.5 187.203125 105.703125 188.398438 C 101.519531 191.984375 97.335938 195.574219 92.550781 199.160156 C 90.160156 201.550781 87.171875 203.34375 84.78125 205.734375 C 80.59375 209.324219 75.8125 212.3125 73.421875 217.691406 C 73.421875 218.292969 72.222656 218.890625 71.625 219.488281 C 68.636719 221.878906 63.855469 221.878906 63.855469 226.660156 C 59.070312 226.660156 56.679688 230.25 54.289062 233.238281 C 52.496094 235.628906 50.703125 238.617188 48.308594 240.410156 C 45.917969 241.609375 42.929688 241.011719 39.941406 241.011719 C 38.746094 241.011719 37.546875 241.011719 37.546875 241.609375 C 35.15625 244 32.167969 245.792969 30.375 248.78125 C 28.582031 251.769531 26.789062 253.566406 23.796875 254.164062 C 20.808594 254.761719 17.820312 257.75 13.632812 255.957031 C 10.046875 254.761719 5.863281 255.957031 3.46875 253.566406 C -1.3125 254.164062 -4.898438 255.359375 -9.085938 255.957031 C -13.867188 257.152344 -19.25 256.554688 -23.433594 260.140625 C -27.019531 263.128906 -30.007812 266.121094 -35.390625 265.523438 C -34.792969 269.109375 -34.195312 272.097656 -33.597656 275.6875 C -32.402344 285.25 -31.207031 294.816406 -30.609375 304.382812 C -28.8125 316.339844 -28.214844 327.699219 -29.410156 339.058594 C -30.609375 355.199219 -35.988281 907.625 -41.367188 922.570312 L -46.75 935.125 C -47.945312 938.113281 -46.152344 939.910156 -43.164062 940.507812 C -39.574219 941.105469 -38.378906 943.496094 -37.183594 946.484375 C -35.988281 951.269531 -37.78125 956.050781 -35.390625 960.832031 C -34.195312 963.226562 -35.390625 967.410156 -35.988281 970.996094 C -36.585938 975.78125 -35.390625 980.5625 -33.597656 984.75 C -29.410156 991.921875 -28.8125 1000.292969 -28.8125 1008.066406 C -28.8125 1009.859375 -28.214844 1011.652344 -27.617188 1012.847656 C -26.421875 1014.042969 -24.03125 1015.238281 -21.640625 1015.835938 L -7.289062 1023.011719 C -0.714844 1026.597656 4.667969 1026 10.644531 1021.816406 C 11.242188 1021.21875 13.035156 1020.621094 13.632812 1020.621094 C 17.820312 1021.21875 22.003906 1021.21875 25.589844 1024.804688 C 29.777344 1028.390625 35.753906 1030.785156 40.539062 1033.773438 C 43.527344 1035.566406 47.113281 1037.957031 48.90625 1040.347656 C 50.105469 1041.542969 51.300781 1042.742188 52.496094 1043.339844 C 59.070312 1045.730469 62.660156 1051.707031 66.84375 1056.492188 C 70.429688 1060.675781 75.214844 1063.066406 80.59375 1063.664062 C 86.574219 1064.863281 92.550781 1065.460938 98.53125 1066.65625 C 100.921875 1067.253906 103.910156 1067.851562 106.300781 1069.046875 C 109.292969 1070.242188 112.28125 1070.242188 114.671875 1072.035156 C 118.261719 1075.023438 121.847656 1076.820312 126.628906 1075.621094 C 128.421875 1075.023438 130.816406 1076.222656 132.609375 1076.820312 C 133.207031 1076.820312 133.804688 1077.417969 134.402344 1077.417969 C 140.976562 1078.015625 146.957031 1076.820312 152.9375 1075.621094 C 155.328125 1075.023438 157.71875 1074.425781 160.109375 1073.230469 C 166.6875 1070.242188 173.261719 1067.253906 179.242188 1063.664062 C 183.425781 1061.273438 187.613281 1058.882812 192.394531 1061.273438 L 194.785156 1061.273438 C 198.972656 1061.273438 203.15625 1060.675781 206.742188 1060.078125 C 207.339844 1060.078125 208.535156 1060.078125 208.535156 1059.480469 C 210.332031 1057.089844 213.320312 1057.089844 216.308594 1056.492188 C 221.089844 1055.894531 225.875 1055.894531 229.460938 1052.902344 C 233.050781 1050.511719 236.636719 1049.914062 240.820312 1049.316406 C 241.417969 1049.316406 242.613281 1048.71875 243.210938 1048.71875 C 246.203125 1048.121094 249.191406 1046.328125 251.582031 1046.925781 C 256.964844 1048.121094 259.355469 1046.328125 262.941406 1041.542969 C 263.539062 1040.347656 265.332031 1039.75 266.527344 1039.152344 C 269.519531 1038.554688 272.507812 1039.152344 275.496094 1038.554688 C 277.289062 1038.554688 279.085938 1036.761719 280.28125 1036.761719 C 285.0625 1037.359375 290.445312 1035.566406 294.628906 1038.554688 C 295.226562 1039.152344 296.421875 1039.152344 297.617188 1039.152344 C 305.390625 1039.75 311.964844 1042.144531 317.347656 1046.925781 C 319.140625 1048.71875 321.53125 1049.914062 323.324219 1051.109375 C 325.121094 1052.304688 327.511719 1052.304688 329.304688 1052.902344 C 331.097656 1053.503906 332.292969 1054.101562 334.085938 1054.101562 C 337.078125 1054.101562 339.46875 1055.296875 341.261719 1057.6875 C 341.859375 1058.285156 342.457031 1058.882812 343.054688 1060.078125 C 342.457031 1061.871094 346.042969 1066.65625 348.4375 1066.65625 C 352.621094 1066.65625 356.804688 1067.851562 360.394531 1070.839844 C 360.992188 1071.4375 362.1875 1071.4375 363.382812 1070.839844 C 365.175781 1070.242188 366.371094 1070.242188 367.566406 1072.035156 C 368.164062 1072.632812 370.558594 1072.632812 371.753906 1072.632812 C 374.742188 1072.632812 378.328125 1072.035156 381.320312 1072.632812 C 386.699219 1073.230469 391.480469 1073.828125 396.863281 1075.023438 C 398.058594 1075.023438 399.253906 1075.621094 399.851562 1076.222656 C 401.046875 1079.210938 404.035156 1079.210938 405.832031 1079.808594 C 407.625 1080.40625 410.015625 1081.003906 411.210938 1081.003906 C 411.808594 1080.40625 413.003906 1079.808594 414.199219 1078.613281 C 411.808594 1078.613281 410.613281 1079.210938 409.417969 1079.210938 C 411.808594 1076.222656 414.199219 1075.621094 417.191406 1077.417969 C 420.777344 1080.40625 423.765625 1080.40625 427.953125 1077.417969 L 431.539062 1075.621094 L 431.539062 1072.632812 C 433.332031 1073.230469 435.125 1074.425781 436.320312 1074.425781 C 439.910156 1072.632812 443.496094 1070.839844 446.484375 1068.449219 C 450.074219 1066.058594 453.0625 1063.066406 456.050781 1060.675781 C 456.648438 1060.675781 456.648438 1060.078125 457.246094 1060.078125 C 461.429688 1058.882812 465.019531 1058.285156 469.203125 1057.089844 C 471.59375 1056.492188 473.390625 1055.296875 475.78125 1054.699219 C 477.574219 1054.101562 478.769531 1054.101562 480.5625 1053.503906 L 486.542969 1053.503906 C 487.738281 1053.503906 489.53125 1053.503906 490.726562 1052.902344 C 491.324219 1051.707031 492.519531 1049.914062 493.117188 1049.914062 C 494.910156 1049.914062 496.109375 1051.109375 497.902344 1051.707031 C 498.5 1051.707031 498.5 1052.304688 498.5 1052.902344 C 500.890625 1055.296875 502.683594 1058.285156 505.074219 1060.675781 C 508.066406 1063.664062 511.054688 1063.664062 512.847656 1061.871094 C 515.835938 1059.480469 518.226562 1057.6875 522.414062 1058.882812 C 523.011719 1058.882812 524.207031 1059.480469 524.804688 1058.882812 C 527.792969 1057.6875 531.382812 1056.492188 534.371094 1054.699219 C 536.164062 1054.101562 538.554688 1054.101562 539.152344 1052.902344 C 540.945312 1049.316406 543.9375 1047.523438 546.925781 1045.132812 C 548.71875 1043.339844 550.511719 1040.945312 552.304688 1040.347656 C 556.492188 1039.152344 559.480469 1035.566406 563.066406 1033.175781 C 566.058594 1031.382812 567.851562 1027.792969 570.839844 1027.195312 C 575.625 1026 579.210938 1023.011719 583.394531 1020.023438 C 585.785156 1018.226562 588.777344 1017.03125 591.765625 1017.628906 C 593.558594 1018.226562 595.949219 1017.628906 597.144531 1017.03125 C 599.539062 1015.835938 601.929688 1014.042969 604.320312 1012.847656 C 606.113281 1011.652344 607.90625 1010.457031 609.699219 1010.457031 C 615.679688 1009.859375 620.460938 1008.664062 623.453125 1002.683594 C 624.648438 1000.292969 630.625 997.304688 633.019531 998.5 C 637.203125 1000.292969 640.191406 999.097656 642.582031 995.507812 C 644.378906 993.714844 646.769531 994.3125 648.5625 995.507812 C 649.757812 996.707031 650.953125 997.304688 652.148438 997.304688 C 656.335938 997.902344 661.117188 997.304688 665.300781 997.902344 C 668.890625 998.5 672.476562 997.304688 674.867188 994.910156 C 677.257812 992.519531 679.054688 992.519531 682.640625 993.714844 C 685.628906 994.910156 688.019531 997.902344 692.207031 997.304688 C 695.792969 996.707031 699.976562 998.5 704.164062 996.707031 L 706.554688 996.707031 C 710.140625 997.902344 713.730469 998.5 716.71875 1001.488281 C 720.304688 1004.476562 720.902344 982.355469 724.492188 984.75 C 729.871094 988.335938 728.675781 984.75 734.054688 987.738281 C 738.242188 989.53125 736.449219 982.953125 741.230469 984.148438 C 741.828125 984.148438 749.003906 988.933594 749.003906 988.335938 C 751.992188 986.542969 754.980469 968.605469 757.96875 969.203125 C 763.949219 970.996094 769.328125 969.800781 774.710938 967.410156 C 777.699219 966.214844 782.484375 962.03125 784.875 963.824219 C 789.058594 966.8125 793.246094 968.007812 798.027344 968.605469 C 798.625 968.605469 799.222656 969.203125 799.820312 969.800781 C 801.613281 972.191406 809.984375 965.617188 811.777344 968.007812 C 814.167969 971.59375 816.5625 975.183594 818.953125 978.171875 C 820.148438 979.367188 821.941406 979.964844 822.539062 981.160156 C 823.136719 984.148438 824.332031 985.347656 827.324219 985.347656 C 829.117188 985.347656 830.910156 985.945312 832.105469 987.140625 C 835.09375 988.933594 837.484375 990.726562 839.878906 992.519531 C 842.867188 994.3125 845.855469 996.109375 847.050781 999.097656 C 847.648438 1000.292969 848.246094 1000.890625 848.84375 1001.488281 C 851.238281 1003.878906 853.628906 1005.671875 856.019531 1008.066406 C 859.605469 1011.054688 862.597656 1014.640625 866.183594 1017.628906 C 867.378906 1018.226562 868.574219 1019.425781 869.769531 1020.023438 C 872.160156 1021.21875 874.554688 1022.414062 876.347656 1024.207031 C 878.140625 1026 886.511719 1015.238281 887.707031 1017.628906 C 887.707031 1018.226562 888.304688 1018.226562 888.902344 1018.226562 C 892.488281 1021.21875 896.078125 1020.023438 899.664062 1018.824219 C 900.859375 1018.226562 902.054688 1017.628906 902.652344 1018.226562 C 906.835938 1020.023438 909.828125 1024.207031 915.207031 1024.804688 C 915.207031 1024.804688 915.804688 1024.804688 915.804688 1025.402344 C 917 1028.988281 920.589844 1028.988281 923.578125 1029.585938 C 925.371094 1029.585938 927.164062 1030.1875 928.359375 1030.785156 C 931.949219 1032.578125 935.535156 1034.96875 939.71875 1036.164062 C 945.101562 1037.957031 950.480469 1039.152344 954.667969 1042.144531 C 955.265625 1042.144531 955.863281 1042.144531 955.863281 1042.742188 C 957.65625 1043.9375 960.644531 1044.535156 961.839844 1046.328125 C 963.632812 1049.914062 968.417969 1049.316406 970.808594 1052.304688 L 971.40625 1052.304688 C 973.796875 1052.304688 976.191406 1052.902344 979.179688 1052.902344 C 980.375 1052.304688 982.167969 1051.109375 983.363281 1051.109375 C 988.746094 1052.902344 994.125 1052.902344 997.710938 1048.121094 C 998.3125 1047.523438 999.507812 1047.523438 1000.703125 1047.523438 L 1005.484375 1047.523438 C 1010.867188 1046.328125 1015.648438 1045.132812 1021.03125 1044.535156 C 1023.421875 1043.9375 1026.410156 1045.132812 1028.800781 1045.730469 C 1031.191406 1046.328125 1033.585938 1046.328125 1035.976562 1046.328125 C 1038.964844 1046.328125 1041.355469 1045.132812 1044.347656 1045.132812 C 1046.738281 1044.535156 1049.726562 1044.535156 1052.117188 1043.9375 C 1057.5 1042.742188 1062.28125 1041.546875 1067.664062 1040.945312 C 1071.25 1020.621094 1070.652344 996.707031 1070.652344 972.191406 Z M 1070.652344 972.191406 " clip-rule="nonzero"/></clipPath></defs><g clip-path="url(#bb9e38e3a6)"><g clip-path="url(#4f9ed50122)"><path fill="#d0b3a1" d="M -46.75 136.382812 L 1071.25 136.382812 L 1071.25 1081.003906 L -46.75 1081.003906 Z M -46.75 136.382812 " fill-opacity="1" fill-rule="nonzero"/></g></g></svg>